<svg viewBox="0 0 512 512" xmlns="http://www.w3.org/2000/svg">
  <path fill="#000" d="M118.555 104.505h268.661v292.441H118.555z"/>
  <path d="M437.02 74.98C388.667 26.628 324.38 0 256 0S123.333 26.628 74.98 74.98C26.629 123.333 0 187.621 0 256s26.629 132.667 74.981 181.019S187.62 512 256 512s132.667-26.628 181.02-74.98C485.371 388.667 512 324.379 512 256s-26.629-132.667-74.98-181.02zm-67.019 140.791c0 48.776-39.683 88.459-88.46 88.459h-61.54v83.541h-30V124.23h91.54c48.777 0 88.46 39.683 88.46 88.459v3.082z"/>
<path fill="#fff" d="M342.667 352.245c7.688-12.751 11.553-26.474 11.553-41.124 0-16.134-3.206-29.716-9.664-40.658-6.456-10.988-15.329-19.611-26.751-25.963-11.377-6.304-28.948-12.47-52.712-18.36-23.766-5.934-38.744-11.589-44.894-17.06-4.833-4.311-7.249-9.458-7.249-15.485 0-6.63 2.592-11.915 7.775-15.856 8.038-6.166 19.152-9.226 33.342-9.226 13.749 0 24.072 2.874 30.924 8.625 4.218 3.522 7.512 8.437 9.928 14.742 3.075 8.066 10.586 13.259 18.801 12.889l11.641-.556c13.046-.603 21.744-14.419 17.306-27.4-3.997-11.591-10.498-21.558-19.591-29.904-15.33-14.047-38.217-21.094-68.571-21.094-18.582 0-34.483 2.966-47.617 8.901-13.135 5.935-23.194 14.558-30.223 25.871-6.984 11.311-10.498 23.504-10.498 36.485 0 20.214 7.423 37.321 22.272 51.368 10.541 9.968 28.947 18.405 55.128 25.268 20.338 5.331 33.386 9.04 39.096 11.127 8.346 3.152 14.232 6.814 17.57 11.079 3.339 4.219 5.052 9.365 5.052 15.393 0 9.41-3.997 17.616-11.948 24.663-7.994 7.047-19.811 10.524-35.581 10.524-14.847 0-26.664-3.939-35.406-11.822-5.886-5.332-10.455-12.702-13.706-22.114-2.987-8.762-11.244-14.232-20.029-13.351l-9.885 1.018c-12.256 1.253-20.207 14.094-16.56 26.474 5.007 16.921 13.221 30.597 24.599 40.936 16.386 14.929 39.886 22.393 70.459 22.393 20.998 0 38.569-3.107 52.626-9.318 14.233-6.213 25.126-15.717 32.813-28.465z"/>
</svg>